<svg width="256" height="256" viewBox="0 0 256 256" fill="none" xmlns="http://www.w3.org/2000/svg">
<path d="M0 0H256V256H0V0Z" fill="white"/>
<g clip-path="url(#clip0_961_52)">
<path d="M127.5 144.229C136.509 144.229 143.811 136.963 143.811 128C143.811 119.037 136.509 111.771 127.5 111.771C118.492 111.771 111.189 119.037 111.189 128C111.189 136.963 118.492 144.229 127.5 144.229Z" fill="black"/>
<path d="M127.5 161.249C175.837 161.249 215.022 146.363 215.022 128C215.022 109.637 175.837 94.7505 127.5 94.7505C79.1633 94.7505 39.9785 109.637 39.9785 128C39.9785 146.363 79.1633 161.249 127.5 161.249Z" stroke="black" stroke-width="8"/>
<path d="M98.5599 144.625C122.728 186.275 155.278 212.597 171.261 203.415C187.244 194.233 180.609 153.026 156.441 111.375C132.272 69.7245 99.7227 43.4031 83.7394 52.5847C67.7561 61.7663 74.3915 102.974 98.5599 144.625Z" stroke="black" stroke-width="8"/>
<path d="M98.5597 111.375C74.3912 153.026 67.7558 194.234 83.7391 203.415C99.7224 212.597 132.272 186.275 156.44 144.625C180.609 102.974 187.244 61.7663 171.261 52.5847C155.278 43.4031 122.728 69.7245 98.5597 111.375Z" stroke="black" stroke-width="8"/>
</g>
<defs>
<clipPath id="clip0_961_52">
<rect width="183" height="162" fill="white" transform="translate(36 47)"/>
</clipPath>
</defs>
</svg>
